<?xml version="1.0" encoding="utf-8"?>
<!-- Generator: Adobe Illustrator 21.1.0, SVG Export Plug-In . SVG Version: 6.00 Build 0)  -->
<svg version="1.1" id="Layer_1" xmlns="http://www.w3.org/2000/svg" xmlns:xlink="http://www.w3.org/1999/xlink" x="0px" y="0px"
	 viewBox="0 0 1368 851" style="enable-background:new 0 0 1368 851;" xml:space="preserve">
<style type="text/css">
	.st0{fill:#D6DFE1;}
	.st1{fill:#CAD5D0;}
	.st2{fill:#BECABD;}
	.st3{fill:#BABEB1;}
	.st4{fill:#7B9BA3;}
	.st5{fill:#B3AEA5;}
</style>
<g>
	<polygon class="st0" points="399.5,308.5 692.5,355.5 971.5,473.5 637.2,473.9 	"/>
	<polygon class="st1" points="80.5,51.5 197.5,31.5 325.5,150.5 347.5,224.5 412.5,244.5 545.5,362.5 649.5,387.5 893.5,473.5 
		619.5,473.5 48.5,196.5 	"/>
	<path class="st2" d="M107.6,119.5l283.8,205l249.9,126l74.6,14l247-22c0,0,356.6,31,356.6,37s-38,151-38,151l-259.5-29l-360.3-14
		l-435.9-180L107.6,119.5z"/>
	<polygon class="st3" points="243.5,378.5 653.5,563.5 836.5,587.5 1254.5,571.5 1319.5,644.5 1249.5,752.5 878.5,807.5 
		182.5,520.5 	"/>
	<polygon class="st3" points="78.5,175.5 252.9,312.5 785.5,720.5 152.1,581.5 48.5,322.5 	"/>
	<polygon class="st4" points="715.5,464.5 759.5,485.5 701,506.3 818.8,559.3 712.7,591.9 851.1,612.2 833,651.9 971.5,727.3 
		909.4,796.5 866.7,764.9 930.1,735.4 816.2,657 833,618.3 689.4,591.9 803.3,559.3 688.1,502.3 754.5,485.5 	"/>
	<polygon class="st5" points="102.7,371.5 575.5,601.5 703.3,615.5 819.6,701.5 877.7,736.5 883.5,796.5 776,819.5 174.4,780.5 
		64,563.5 	"/>
</g>
</svg>
