<?xml version="1.0" encoding="utf-8"?>
<!-- Generator: Adobe Illustrator 21.1.0, SVG Export Plug-In . SVG Version: 6.00 Build 0)  -->
<svg version="1.1" id="Layer_1" xmlns="http://www.w3.org/2000/svg" xmlns:xlink="http://www.w3.org/1999/xlink" x="0px" y="0px"
	 viewBox="0 0 1464 575" style="enable-background:new 0 0 1464 575;" xml:space="preserve">
<style type="text/css">
	.st0{fill:#A79999;}
	.st1{fill:#9C8D95;}
	.st2{fill:#CCBCB2;}
	.st3{fill:#B2A194;}
	.st4{fill:#E0D8D1;}
	.st5{fill:#4C2016;}
	.st6{fill:#1F2128;}
	.st7{fill:#5C4746;}
	.st8{fill:#805851;}
	.st9{fill:#E9C394;}
	.st10{fill:#F7E7B0;}
	.st11{fill:#6D3329;}
	.st12{fill:#2E303C;}
	.st13{fill:#050607;}
	.st14{fill:#FFF4DA;}
	.st15{fill:#F2C7A0;}
</style>
<g>
	<polygon class="st0" points="594.5,486.5 661.9,452.5 715,438.5 756.7,436.5 766,422.5 748.2,397.5 777.8,377.5 853.8,377.5 
		975.7,403.3 1023.2,400.5 1035.9,388.5 1103.5,396.5 1117.9,416.4 1219.3,404.5 1345.8,422.5 1378.5,501.5 1251.9,528.5 
		1135.5,505.5 898.7,528.5 706.8,536.5 674.1,514.5 614.9,513.5 	"/>
	<polygon class="st1" points="85.5,315.5 195,388.5 269.5,348.5 329.6,364.5 381.9,346.5 462.3,356.5 550.5,388.5 585.3,408.5 
		619.2,388.5 660.9,388.5 676.4,421.5 717.1,449.5 770.3,449.5 789.7,468.5 816.8,458.5 852.7,487.5 863.3,516.5 771.3,528.5 
		736.4,504.5 635.7,528.5 441,503.5 353.8,516.5 296.7,497.5 201.7,528.5 165.9,500.5 166.9,478.5 122.3,497.5 120.4,446.5 
		99.1,400.5 	"/>
	<polygon class="st2" points="522.5,444.5 517.5,443.5 512.8,446.8 501.6,451.8 490.1,451.8 486.5,452.5 473.5,462.5 475.5,447.5 
		479.5,441.5 482.5,442.5 462.5,395.5 472.7,368.4 456.2,347.2 511.1,346.9 507.7,376.7 482.3,399.6 497.9,433.9 499.5,436.2 
		502.5,433.5 510.5,433.5 512.5,437.5 504,440.4 516.5,437.5 520.5,439.5 	"/>
	<polygon class="st3" points="459.4,432.3 448.6,431.9 442.9,434.4 433.2,437.3 424.2,435.8 413.7,435.6 397.6,438.9 409.6,427.5 
		420.1,428.6 402.7,376.1 410.1,384.5 425,362 428.2,338 458.9,348.6 451.1,373.8 427.1,390 433.4,421.5 439.4,420.9 434.8,422.9 
		434.2,423.7 441.9,421.9 453.9,425.5 442.3,425.8 437,427.8 448.5,427.2 	"/>
	<polygon class="st4" points="549.5,292.5 565.5,302.5 569.5,319.5 545.5,337.5 539.5,309.5 	"/>
	<polygon class="st5" points="520,210.4 503.2,263.2 500.7,275.9 503.2,282.6 514.5,310.5 512.5,364.5 436.5,388.5 384.5,378.5 
		407.5,318.5 436.7,285.3 438.6,272.6 431.1,213.1 	"/>
	<polygon class="st6" points="523.3,126.4 525.8,141.6 520.8,154.3 514.7,146 515.7,128.9 	"/>
	<polygon class="st7" points="541.1,123.8 538.6,131.4 523.3,131.4 528.4,118.7 	"/>
	<polygon class="st8" points="528.4,103.5 541.1,111.1 543.6,126.4 538.6,123.8 530.9,126.4 510.6,111.1 	"/>
	<polygon class="st9" points="533.5,121.3 533.5,128.9 495.3,161.9 475,134 	"/>
	<polygon class="st10" points="533.5,121.3 530.9,111.1 527.1,106 475,100.9 447.1,134 490.3,149.2 	"/>
	<polygon class="st11" points="542.5,207.6 538.9,259.6 554.6,294.2 521.7,348.4 511.7,289.2 500.3,259.4 519.9,214.3 	"/>
	<polygon points="471.1,275.3 503.4,263.5 500.9,276.1 503.4,282.8 461.7,292 436.7,285.3 438.6,271.9 	"/>
	<polygon class="st12" points="525.8,113.7 533.5,111.1 536,141.6 528.4,159.4 528.4,144.1 525.8,121.3 497.9,128.9 497.9,108.6 	
		"/>
	<polygon class="st13" points="505.5,149.5 519.3,186.2 537.5,190.5 543.5,203.5 543.5,229.5 529,262.1 521.7,266.6 503.5,290.5 
		507.5,275.5 477.1,294.1 461.7,296.3 415.5,316.4 438.4,299.7 394.4,306 324.9,330 344,303.7 324,310.8 356.5,282.9 374.1,258.9 
		338.9,268.5 365.3,249.3 305.5,277.3 376.8,227 334.5,232.6 377.7,207.8 327.5,216.6 410.2,185.4 474.5,149.5 	"/>
	<polygon class="st14" points="496.4,93.7 435.4,38.5 455.8,92.2 418,80.6 444.2,106.8 389,93.7 429.6,121.3 378.8,135.8 
		410.8,135.8 396.2,140.2 418,138.7 378.8,167.7 432.5,166.3 415.1,214.2 468.8,176.5 470.3,201.1 487.7,175 484.8,192.4 
		493.5,172.1 509.5,196.8 509.5,143.1 519.7,166.3 512.4,116.9 518.2,67.5 	"/>
	<polygon class="st15" points="499.3,102.4 444.2,54.5 468.8,102.4 428.2,86.4 458.7,112.6 405,102.4 445.6,124.2 405,132.9 
		439.8,132.9 399.1,159 448.5,151.8 438.4,159 452.9,153.2 426.7,196.8 484.8,153.2 474.7,189.5 493.5,159 508.1,189.5 508.1,132.9 
		518.2,159 509.5,118.4 513.9,77.7 	"/>
</g>
</svg>
