<?xml version="1.0" encoding="utf-8"?>
<!-- Generator: Adobe Illustrator 21.1.0, SVG Export Plug-In . SVG Version: 6.00 Build 0)  -->
<svg version="1.1" id="Layer_1" xmlns="http://www.w3.org/2000/svg" xmlns:xlink="http://www.w3.org/1999/xlink" x="0px" y="0px"
	 viewBox="0 0 1353 739" style="enable-background:new 0 0 1353 739;" xml:space="preserve">
<style type="text/css">
	.st0{fill:#E3EFFD;}
	.st1{fill:#C4D1E1;}
	.st2{fill:#B6C4D6;}
	.st3{fill:#A9B8CB;}
	.st4{fill:#9DADC0;}
	.st5{fill:#90A1B5;}
	.st6{fill:#8596AB;}
</style>
<g>
	<polygon class="st0" points="64.5,101 1226.5,74 1236.5,340 1207.5,665 155.5,589 131.5,270 	"/>
	<polygon class="st1" points="236.5,252 325.5,234 371.5,252 443.5,234 483.5,261 531.5,222 599.5,254 632.5,543 213.5,580 
		127.5,389 	"/>
	<polygon class="st2" points="483.5,284 639.5,186 686.5,207 734.5,172 759.5,193 828.5,159 933.5,207 724.5,445 397.5,360 	"/>
	<polygon class="st3" points="752.5,331 664.5,275 597.5,234 533.5,259 492.5,244 198.5,347 283.5,543 618.5,459 	"/>
	<polygon class="st4" points="417.5,503 742.5,293 831.5,172 897.5,196 1044.5,172 1061.5,370 913.5,528 	"/>
	<polygon class="st5" points="664.5,423 802.5,340 875.5,319 935.5,252 1005.5,165 1088.5,107 1191.5,182 1252.5,297 1236.5,608 
		222.5,553 	"/>
	<polygon class="st6" points="250.5,581 852.5,368 1063.5,410 1230.5,319 1267.5,456 1288.5,647 	"/>
</g>
</svg>
