<?xml version="1.0" encoding="utf-8"?>
<!-- Generator: Adobe Illustrator 21.1.0, SVG Export Plug-In . SVG Version: 6.00 Build 0)  -->
<svg version="1.1" id="Layer_1" xmlns="http://www.w3.org/2000/svg" xmlns:xlink="http://www.w3.org/1999/xlink" x="0px" y="0px"
	 viewBox="0 0 768 407" style="enable-background:new 0 0 768 407;" xml:space="preserve">
<style type="text/css">
	.st0{fill:#587241;}
	.st1{fill:#747F47;}
	.st2{fill:#57684A;}
	.st3{fill:#687252;}
	.st4{fill:#4B5B40;}
	.st5{fill:#0E110C;}
	.st6{fill:#4C6B4A;}
	.st7{fill:#566646;}
</style>
<g>
	<g>
		<path class="st0" d="M687.2,130l6.5,6.3h8.3l6.5-8.5l-11.2-17l-5.3,8.9l-9.7-14.9l-1,1.7l-7.9-12.1h-2l-1.6,2.8l-1.8-2.8h3.4
			l0.9-1.6l1,1.6h0.6l0.2-0.3l6.5,6.3h8.3l6.5-8.5l-11.2-17l-5.3,8.9l-5.8-8.9l5.3-6.9l-11.2-17l-5.3,8.9l-9.7-14.9l-9.8,16.5
			l-6.2-9.5l-5.2,8.8l-5.8-8.8l-3.5,5.9l0.5,0.8l-1.8,3l-0.5-0.8l1.8-3l-6.5-9.9l-1.8,3l-3.3-5l-5.1,8.6l-4.2-6.4l-4.7,7.9l-2-3.1
			l0,0.1l-1.2-1.8l2.4-3.2l-11.2-17l-10.7,18.1l1.2,1.8l-0.7-0.6l-0.7-0.7l0.1-0.2l0.1-0.2l-5.3-8.1l-7,11.8l-2.3-3.5l-4.7,7.9
			l-3.3-5l2.4-3.2l-11.2-17l-10.7,18.1l-5.3-8.1l-11,18.5l0.8,0.8l-5.9,9.8l-1.3-1.9l2.4-3.2l-11.2-17l-10.7,18.1l-5.3-8.1l-1.6,2.7
			l-2.4-3.7l-5.3,8.9l-9.7-14.9l-9.8,16.5l-6.2-9.5l-7.7,13l-5.3-8l-1,1.7l-7-10.7l-6.9,11.6l0.2,0.2l-1.3,1.7l1.1-1.9L414,54.9
			l-4.7,7.9l-3.3-5l2.4-3.2l-11.2-17l-10.7,18.1l1.2,1.8l-1.4-1.4l0.2-0.4l-5.3-8.1l-11,18.5l0.8,0.8l-1.6,2.8l-7.2-11l-10.7,18.1
			l1.2,1.8l-1.4-1.4l0.2-0.4l-5.3-8.1l-4,6.7l-5-7.7l-9,15.2l-6-9.2l-6,10.2l-8-12.2l-5.5,9.3l-2.7-4.1l2.4-3.2l-11.2-17l-10.7,18.1
			l-5.3-8.1l-2,3.3l-3.3-5.1l-6.3,10.5l-4.4-6.8l-3.9,6.5l0.2,0.3l-1.4,1.9l1.3-2.1L248,63.9l-4.7,7.9l-4-6.1l-10,16.8l-1.1-1.8
			l2.3-3l-11.2-17l-11,18.5l5.1,5l-1,1.7l-6.5-9.9l-7.4,12.5l0.2,0.3l-0.2-0.2l0-0.1l-1.6-2.5l-5.8,9.8l-3.9-6l-6.7,11.3L174,90.9
			l-6.6,11.2l-5.4-8.2l-6.8,11.4l-0.3-0.4l-1.6,2.6l-5.4-8.3l-4.4,7.5l-0.6-0.9l-3,5.1l-4-6.1l-2.2,3.7l-1.8-2.7l-4.1,6.9l-2.3-3.5
			l-0.8,1.3l-4.6-7l-6.5,11l-1.8-2.7l-5.6,9.5l-0.4-0.5l-3,5.1l-6-9.1l-5.7,9.6l-4.3-6.6l-7.4,12.5l1.2,1.2l-0.7,1.2L73,123.9
			l-4.1,6.9l-1.9-2.9l-7.4,12.5l5,4.8h5.2l-0.1,0.2l5,4.8h5.6l2.3-3l0.5-0.6l0.6,0.6l1,1h5.6l1.2-1.6h2.5l1.6,1.6h5.6l0.2-0.2
			l0.2,0.2h5.6l3-4h3l0.2-0.2l5,4.9h6.3l4.1-5.3l2.8,2.7h5.7l3-4h3l0.5-0.7l3.8,3.7h5.7l4-5.3l1.3,1.3h5.7l3-4h4l1.1-1.4l1.4,1.4
			h6.8l4.1,4h5.7l3-4h5l1-1.3l3.4,3.3h5.7l3.6-4.7l-0.3-0.3h0.5l-0.2,0.3l2.8,2.7h10.7l3.8-5h5.2l4-5.3l0.3,0.3h3.9l4.1,4h5.7l3.8-5
			h1l1.5-2l3.1,3h8.3l0.7-0.9l1.9,1.9h7.7l1.1-1.4l0.4,0.4h8.3l0.2-0.3l0.3,0.3h5.7l0.6-0.7l1.8,1.7h7.7l0.8-1h3l1.1-1.4l5.6,5.4
			h8.3l3.8-5h0.4l3.8-5h1l2-2.6l0.6,0.6h4.7l-2.9,4.9l7.3,7.1h8.3l6.5-8.5l-1.6-2.5h7.6l-1.1,1.9l7.3,7.1h8.3l1.1-1.4l5.6,5.4h8.3
			l6.5-8.5l-1-1.5h3.5l2-2.6l0.6,0.6h4.7l-2.9,4.9l7.3,7.1h8.3l5.3-7h4.5l-4.3,7.2l4.9,4.8h5.7l4.4-5.8l-1.4-2.2h4.8l6.5-8.5
			l-1.1-1.7l2.3,2.2h0.6l-5.9,9.9l7.3,7.1h8.3l1.1-1.4l5.6,5.4h8.3l6.5-8.5l-1-1.5h3.5l2-2.6l0.6,0.6h4.7l-2.9,4.9l7.3,7.1h8.3
			l3.8-5h4.2l0.2-0.3l4.4,4.3h8.3l6.5-8.5l-1.1-1.7l2.3,2.2h0.6l-5.9,9.9l7.3,7.1h8.3l1.1-1.4l5.6,5.4h8.3l6.5-8.5l-1-1.5h3.5l2-2.6
			l0.6,0.6h4.7l-2.9,4.9l7.3,7.1h8.3l5.3-7h2.7l0.2-0.3l4.4,4.3h8.3l6.5-8.5l-1.1-1.7l2.3,2.2h0.6l-5.9,9.9l7.3,7.1h8.3l1.1-1.4
			l5.6,5.4h8.3l6.5-8.5l-1-1.5h3.5l2-2.6l0.6,0.6h4.7l-2.9,4.9l7.3,7.1h8.3l6.5-8.5l-1.6-2.5h8.1l6.5-8.5l-10.1-15.5h0.6L687.2,130z
			 M87.2,137.3l0.3-0.5l0.3,0.5H87.2z M132,132.3l0.2-0.4l0.2,0.4H132z M144.5,123.4l-0.1-0.1h0.2L144.5,123.4z M158.5,110.3
			L158.5,110.3L158.5,110.3L158.5,110.3z M196.3,103.3L196.3,103.3L196.3,103.3L196.3,103.3L196.3,103.3L196.3,103.3L196.3,103.3z
			 M200.6,129.3l0.2-0.4l0.3,0.4H200.6z M204.3,107.2l0.1-0.1l0.3,0.5L204.3,107.2z M205.5,122.8l-0.3-0.5h-0.4l0.2-0.3l0.2,0.3h0.6
			L205.5,122.8z M215.4,114.3l-0.8-0.8l0.2-0.3L215.4,114.3l0.1,0.1L215.4,114.3z M224.2,125.3l0.7-0.9l0.3,0.4l0.3,0.5H224.2z
			 M234.7,120.6l-0.2-0.3h0.4L234.7,120.6z M243.2,116.1l0.9-1.5l0.1,0.2L243.2,116.1z M253.1,110.9l-0.6-0.6h1L253.1,110.9z
			 M278.4,113.2L278.4,113.2l0.1,0.1L278.4,113.2z M287.8,118.6l-0.4-0.4h0.6L287.8,118.6z M293.2,80.3h-0.4l0.5-0.8l0.2,0.4
			L293.2,80.3z M298.4,124.3L298.4,124.3h0.1H298.4z M304.8,110.3L304.8,110.3L304.8,110.3L304.8,110.3z M307.3,91.3l0.2-0.2
			l0.1,0.2H307.3z M323.6,105.4l-0.1-0.1L323.6,105.4L323.6,105.4z M327.4,98.9l-0.1-0.1l0.6-0.7L327.4,98.9z M334.9,108.3
			L334.9,108.3l0.2-0.5l0.1,0.1L334.9,108.3z M336.2,106.6l0.1-0.2l0,0L336.2,106.6z M348,94.9l-0.4-0.6h0.8L348,94.9z M366.1,100.5
			l-0.2-0.2h0.3L366.1,100.5z M369,85.7L369,85.7l0.3,0.3L369,85.7z M385.8,86.3L385.8,86.3L385.8,86.3L385.8,86.3z M378.3,93.3
			l0.2-0.2l0.1,0.2H378.3z M380.8,73.3l0.5-0.8l0.4-0.6l1,1.5H380.8z M383.9,95.7l-0.5-0.5h0.8L383.9,95.7z M385.3,89.2l1.1-1.9
			l0.2,0.2L385.3,89.2z M394.6,107.4l-0.1-0.1L394.6,107.4L394.6,107.4z M405.9,91.8l-0.4-0.6l0.1,0.1h0.6L405.9,91.8z M407.3,108.5
			l-0.1,0.1L407.3,108.5l0.2-0.3l0.1,0L407.3,108.5z M410.6,105.3l-0.5-0.5l0.2-0.3l0.5,0.8H410.6z M422.6,115.4l-0.1-0.1h0.2
			L422.6,115.4z M423.5,99.3L423.5,99.3L423.5,99.3L423.5,99.3z M424.3,95.2L424.3,95.2l0.3,0.3L424.3,95.2z M425.7,80.4l-0.1-0.1
			h0.2L425.7,80.4z M429.6,86.4l-0.1-0.1L429.6,86.4L429.6,86.4z M430.8,101.5l-0.2-0.2l0.1-0.2l0,0l0.2,0.3l0,0l0.4,0.6
			L430.8,101.5z M432.8,104.3l-0.5-0.8l0,0L432.8,104.3L432.8,104.3z M432.7,102.8l-0.4-0.5h0.7L432.7,102.8z M434.2,78.7l-0.3,0.4
			l-0.7,1.1l-0.1-0.1l0.7-1L434.2,78.7l1.1-2l0.2,0.3L434.2,78.7z M437.9,122.3h-0.8l0.8-1.3l0.5,0.7L437.9,122.3z M440.4,91.1
			l-0.1-0.2l0.3-0.5l0.2,0.2L440.4,91.1z M442.2,87.6l0.1-0.2l0,0L442.2,87.6z M445,100.4l-0.1-0.1h0.1L445,100.4z M445.6,84.3
			l-0.5-0.5l-0.4-0.4l0.3-0.5l0.4,0.6l0.5,0.8H445.6z M449,84.4L449,84.4L449,84.4L449,84.4z M460,94.3l0.1-0.2l0.1-0.3l0.3,0.4H460
			z M465.6,104.9l-1-1.6h-0.3l0.2-0.2l0.8-1.1l0.9,1.3l0.3,0.5L465.6,104.9z M470,101.3h-0.3l1.6-2.1L470,101.3z M471.3,99.1
			l1.1-1.9l-0.3-0.5l0.4,0.4l-0.1,0.1l0.2,0.2L471.3,99.1z M477,112l-0.4-0.7h0.8L477,112z M480.6,117.4l-0.1-0.1L480.6,117.4
			L480.6,117.4z M484.3,83.4l-0.1-0.2h0.2l0.3-0.5l0.3,0.4l0,0h-0.5L484.3,83.4z M484.9,94.4l0.6,0.9l-0.7-0.7L484.9,94.4z
			 M484.9,110.1l1.4-2.4l0.2,0.3L484.9,110.1z M487.9,106.3h-0.2l0.3-0.4l0.1,0.1L487.9,106.3z M488.8,97.3l0.1-0.1l0.1,0.1H488.8z
			 M496.1,114.8l-0.4-0.4l0.3-0.5l0.4,0.6L496.1,114.8z M500.6,91.2l-0.6-1l0.3-0.6l0.7,1L500.6,91.2z M506.1,99.8L506.1,99.8
			l0.2,0.2L506.1,99.8z M508.5,102.2l-0.1-0.2L508.5,102.2L508.5,102.2z M515,80.9l-0.4-0.6l0.5,0.5L515,80.9z M515.9,83.7l-0.2-0.2
			l-0.3-0.3h0.5l0.3-0.5l0-0.1l0.2,0.3l0.2,0.3h-0.4L515.9,83.7z M516.8,135.6l-0.5-0.4l0.7-1.1l0.5,0.7L516.8,135.6z M518.4,108.1
			l0.1,0.1h-0.2L518.4,108.1z M518.5,119.3L518.5,119.3L518.5,119.3L518.5,119.3z M520.6,98.8l1.2,1.8l-1.4-1.4L520.6,98.8z
			 M524.1,110.9l-0.6-0.6h-1.7l-0.1,0.1l-0.1-0.1h0.2l0.6-1l1.1,1h1L524.1,110.9z M523.3,79.2l1.1-1.9l0.2,0.2L523.3,79.2z
			 M526,89.7l-0.4-0.4h0.6L526,89.7z M525.8,67.3l0.5-0.8l0.6,0.8H525.8z M529.2,92.2L529,92l-0.4-0.7h1.2L529.2,92.2z M530.1,108.9
			L530.1,108.9l0.1-0.2L530.1,108.9z M531.5,123.3L531.5,123.3L531.5,123.3L531.5,123.3z M530.9,67.3h-0.6l0.9-1.6l0.4,0.6
			L530.9,67.3z M536,80.1l0.1,0.1H536L536,80.1z M536.9,90.1l0.3-0.4l0,0L536.9,90.1z M646.6,139.4l-0.1-0.1L646.6,139.4
			L646.6,139.4z M560,124l-0.4-0.7h0.8L560,124z M616.5,79.2l0.1,0.1l0,0L616.5,79.2z M645.7,88.5l-0.2,0.2l-0.7-1L645.7,88.5z
			 M661.3,111.2l1.4-2.3l1.6,2.4h-2.8L661.3,111.2z M643,134l-0.4-0.7h0.8L643,134z M581.8,130.7l-0.5-0.5l0.2-0.4l0.4,0.6
			L581.8,130.7z M579.4,126.5l0.5,0.8h-0.2l-0.5-0.5L579.4,126.5z M607.8,115.2l-0.9-1.4l-0.7,1.2l-0.2-0.3l0.7-1.2l0.4-0.7l0.3,0.3
			l1.2,1.2L607.8,115.2z M651.6,117.3h-0.3l0.2-0.3L651.6,117.3z M610.2,108.3l-1,1.6l-0.2-0.3l0.8-1.3H610.2z M607.6,92.3l-0.4,0.6
			l-0.7-0.6h-0.7l0.3-0.5l0.5,0.5H607.6l0.1-0.2l0.2,0.2H607.6z M588.9,112.3L588.9,112.3l0.1-0.4l0.1,0.1L588.9,112.3z
			 M659.3,140.4L659.3,140.4l-0.1,0.2L659.3,140.4z M662.1,136.8l-0.4-0.4l0.3-0.5l0.4,0.6L662.1,136.8z M662.9,90.4l1.5,2.3
			l-0.2,0.2l-1.9-1.9L662.9,90.4z M649,99.9l0.4,0.6l-0.2,0.3l-0.4-0.4L649,99.9z M644.4,87l0.2,0.3h-0.2l-0.1-0.1L644.4,87z
			 M639.5,94l-1.6,2.1l1.4-2.4L639.5,94z M638.3,84.1l0.9,0.9l-0.6,1.1l-0.7-1.1L638.3,84.1z M636,77.3L636,77.3L636,77.3L636,77.3z
			 M634.5,79.8l1,1.5l-1.2-1.2L634.5,79.8z M630.4,97.3L630,98l-0.4-0.7H630.4z M629.3,80.4L629.3,80.4l-0.1,0.2L629.3,80.4z
			 M626.6,116.3H626l0.1-0.1l0.2-0.3L626.6,116.3z M617.2,73.3l0.1-0.2l0.7-1.1l0.9,1.3h1.1l0.9-1.2l-1.3,2.3l-0.7-1H617.2l-0.7,1.3
			l-0.8-1.3H617.2z M615.2,92.1l-0.3-0.4L615.2,92.1L615.2,92.1z M614.6,71.3l0.3-0.5l0.2,0.2l-0.2,0.3H614.6l-0.2,0.3l-0.2-0.3
			H614.6z M613.3,79.7L613.3,79.7l0,0.2L613.3,79.7L613.3,79.7z M612.3,71.3l-0.1,0.2l-0.1-0.2H612.3z M612,72.4l0.6,0.9h-1
			l-0.2-0.2L612,72.4z M610.7,74.1l-0.6,1l-0.1-0.1L610.7,74.1z M612.7,95.3l-0.8,1h-1l-0.2,0.4l-0.3-0.4l-0.7-1H612.7z M600.4,65.2
			l0.1-0.1l0.1,0.2h1.2l0.4-0.6l1.2-2l1.3,2l1.7-2.3l0.9-1.2l1.1-1.9l0.2,0.2l-1.3,1.7l-0.8,1.4l-1.5,2.6l-0.3-0.5l-0.4,0.6h-2.4
			l-0.5,0.8l-0.1,0.1l-0.4-0.6l-0.4-0.3h-0.2L600.4,65.2z M598.3,100.7l0.3,0.5l0.1,0.1h-0.7L598.3,100.7z M594.7,84.1l0.3-0.4
			l0.6,0.6h-1L594.7,84.1z M594.6,102.5l0.5,0.8h-1L594.6,102.5z M594.1,78.2l0.1,0.1H594L594.1,78.2z M593.3,84.1l0.2,0.2h-0.3
			L593.3,84.1z M592.4,99.1L592.4,99.1l-0.1-0.1L592.4,99.1z M592.2,75l-0.1,0.1l-0.4-0.6L592.2,75z M590.8,72.3L590.8,72.3
			L590.8,72.3L590.8,72.3z M587.3,81.4l0.9-1.5l0.4-0.6l0.2,0.3l-0.4,0.5L587.3,81.4l-0.1,0.2L587.3,81.4z M586.6,90.2l0.1,0.1h-0.2
			L586.6,90.2z M586.9,93.7l0.6-0.8l0.4-0.5l0.2,0.4l0.5,0.7l0.6,0.9h-2.8L586.9,93.7z M582.9,68.7l0.2,0.2l0.1-0.2l0.6,0.9
			l-0.7-0.7l-0.7,1.1l-0.2-0.3L582.9,68.7z M581.4,96.1l0.1,0.2l0.1,0.1l-0.2-0.1L581.4,96.1L581.4,96.1z M578,79.1l0.1,0.2h-0.2
			L578,79.1z M575.8,74.2L575.8,74.2L575.8,74.2L575.8,74.2z M572.6,88.3L572.6,88.3l-0.1,0.2l-0.1-0.2H572.6z M570.6,74.2
			L570.6,74.2l0.9,0L571,75L570.6,74.2L570.6,74.2L570.6,74.2z M567.6,112.3l-0.4-0.4l0.2-0.3l0.4,0.7H567.6z M567.3,62.7l0.5,0.8
			l-0.4,0.6l-0.5-0.8L567.3,62.7z M566.8,88.2l0.1,0.1h-0.1L566.8,88.2z M566.4,60.3l0.2,0.2l-0.8,1l0-0.1L566.4,60.3z M565.3,62.2
			l-1.8,3l-0.3-0.3L565.3,62.2z M563.3,87l-0.1,0.2l-0.6-0.9L563.3,87z M558.4,66.1l0.1,0.2h-0.3L558.4,66.1z M557.7,78.9l0.5,0.8
			l0.3-0.5L559,80l0.2,0.3h1.7l0.3-0.6l0.4,0.6h-0.7l-0.8,1.4l-0.9-1.4h-0.4l-0.1,0.1l-0.8,1.3l-0.6-0.6l0.5-0.9h-0.2l-0.5-0.5
			L557.7,78.9z M547.8,115.3l-0.1,0.2l-0.1-0.2H547.8z M545.3,98.4L545.3,98.4l-0.1,0.2L545.3,98.4z M599.3,145.2L599.3,145.2
			l-0.5-0.9h1L599.3,145.2l0.3,0.3L599.3,145.2z M662.9,137.3h3.2l-1.5,2.5L662.9,137.3z"/>
		<polygon class="st1" points="137,118 129.6,130.5 134.5,135.3 140.2,135.3 144.6,129.5 		"/>
		<polygon class="st1" points="564,90 556.6,102.5 561.5,107.3 567.2,107.3 571.6,101.5 		"/>
		<polygon class="st1" points="643,77 635.6,89.5 640.5,94.3 646.2,94.3 650.6,88.5 		"/>
		<polygon class="st1" points="467,86 459.6,98.5 464.5,103.3 470.2,103.3 474.6,97.5 		"/>
		<polygon class="st1" points="536,67 528.6,79.5 533.5,84.3 539.2,84.3 543.6,78.5 		"/>
		<polygon class="st1" points="357,93 349.6,105.5 354.5,110.3 360.2,110.3 364.6,104.5 		"/>
		<polygon class="st1" points="259,82 251.6,94.5 256.5,99.3 262.2,99.3 266.6,93.5 		"/>
		<polygon class="st1" points="296,102 288.6,114.5 293.5,119.3 299.2,119.3 303.6,113.5 		"/>
		<polygon class="st1" points="202,109 194.6,121.5 199.5,126.3 205.2,126.3 209.6,120.5 		"/>
		<polygon class="st1" points="393,72 385.6,84.5 390.5,89.3 396.2,89.3 400.6,83.5 		"/>
		<polygon class="st1" points="435,97 427.6,109.5 432.5,114.3 438.2,114.3 442.6,108.5 		"/>
	</g>
	<g>
		<path class="st2" d="M676,136.9l-6.1,10.2L658,128.9l-1.2,2l-8.5-13l-1.5,2.5l-7.5-11.5l-9.4,15.9l-1.9-2.9l-1.5,2.6l-10.2-15.6
			l-8.3,14.1l-2.7-4.1l-6.2,10.4l-2-3l0.6-0.8L581,99.9l-9.4,15.9l-0.6-0.9l-8.8,14.9l-3.2-4.9l-3,5.1l-8.6-13.1l-5,8.4l-9.4-14.4
			l-2.9,4.9l-7.1-10.9l-7.9,13.4L503,99.9l-11.1,18.7l-8.9-13.7l-8.9,14.9l-5.9-8.9l-2.6,4.3l-8.7-13.3l-9.3,15.7l-0.4,0.7l-3.7-5.7
			l-6.3-9.7l-9.8,16.5l-7.5-11.5l-7.6,12.8l-7.1-10.8l-0.5,0.8l-6.4-9.8l-10.9,18.4l-1.5-2.4l-0.9,1.6l-3.6-5.6l-3.3,5.5l-8.2-12.5
			l-9,15.2l-8-12.2l-6.4,10.8l-10.3-15.8l-7.4,12.5l-6.9-10.5l-9.5,16l-7.2-11l-6.4,10.8l-6.4-9.8l-4.7,7.9l-6.5-9.9l-6.1,10.3
			l-6.8-10.3l-3.6,6l-4.6-7l-4.6,7.7l-1.7-2.7l-2.5,4.3l-8-12.3l-9.8,16.5l-6.2-9.5l-7,11.8l-4.4-6.8l-7.9,13.3l-8.7-13.3l-9.4,15.8
			l-3.8-5.8l-2.4,4.1l-8.6-13.1l-10.4,17.6l-7.6-11.6l-11.2,18.9l-5.8-8.9l-4.3,7.2l-6.7-10.2l-3.5,6l-8.5-13l-7,11.8l-9-13.8
			l-11.7,19.8l7.8,7.6h8.9l2.1-2.8l5,4.8h4.8l7.2,7h7.9l3.1,3h1.2l-5,8.4l7.7,7.5l-1.9,3.1l-6.1-9.3l-11.7,19.8l7.8,7.6h8.9l6.9-9.1
			l-1.8-2.8l3,2.9h5.2l-2,3.4l7.8,7.6h8.9l0.9-1.1l10.4,10.1h11.8l0,0l0,0h0l-6.8,11.4l7.8,7.6h8.9l4.6-6h8.4l3.8-5h1.3l-0.8,1.4
			l7.8,7.6h8.9l6.1-8h2.9l2.3-3h7.7l2.6-3.4l4.5,4.4h8.9l2.3-3h5.7l4.6-6h8.4l3.8-5h8.9l3.1-4.1l5.3,5.1h8.9l2.3-3h7.7l2.6-3.4
			l4.5,4.4h8.9l6.9-9.1l-2-3l5.3,5.1H367l4.6-6h4.2l-0.2,0.4l7.8,7.6h8.9l4.6-6h8.4l3.8-5h8.9l3.1-4.1l5.3,5.1h8.9l2.3-3h7.7
			l2.6-3.4l4.5,4.4h8.9l6.9-9.1l-2-3l5.3,5.1H484l1-1.3l6.5,6.3H504l4.6-6h4.2l-0.2,0.4l7.8,7.6h8.9l4.6-6h8.4l3.8-5h8.9l3.1-4.1
			l5.3,5.1h8.9l2.3-3h7.7l2.6-3.4l4.5,4.4h8.9l6.9-9.1l-2-3l5.3,5.1h4.9l5.1,5H631l0.6-0.7l9,8.7H653l9.2-12l0.1-0.1l0.1,0.1l8.2,8
			H683l9.7-12.8L676,136.9z M164.1,150.3l-0.2-0.3l1.4-1.9L164.1,150.3z M209.4,192.8l0.7-1.2l0.1,0.1L209.4,192.8z M211.4,169.4
			L211.4,169.4l0.2,0.2L211.4,169.4z M232.2,207.5l-0.1-0.2h0.3L232.2,207.5z M265.3,195.3l0.2-0.3l0.9,1.4L265.3,195.3z
			 M268.6,142.3L268.6,142.3L268.6,142.3L268.6,142.3z M270.7,139.5l-1.1-1.7l0,0L270.7,139.5L270.7,139.5z M288.4,154.4
			L288.4,154.4l0.2,0.2L288.4,154.4z M316.8,144.3l0.2-0.3l0.2,0.3H316.8z M344,184.3h-0.2l0.8-1.3l0.2,0.3L344,184.3z M345.1,158.4
			l-0.7-1.1h1.3L345.1,158.4z M352.8,153.9l-0.3-0.3l1.2-2l0.2,0.3L352.8,153.9z M358.5,159.4l0.1-0.2l0.6,1L358.5,159.4z
			 M365.5,165.3L365.5,165.3L365.5,165.3L365.5,165.3z M405.4,137.4L405.4,137.4l-0.2-0.1L405.4,137.4L405.4,137.4z M461,167.3h-0.2
			l0.8-1.3l0.2,0.3L461,167.3z M637.4,136.3L637.4,136.3L637.4,136.3L637.4,136.3z M619.5,136.3L619.5,136.3L619.5,136.3
			L619.5,136.3z M497,145l-0.3,0.3L497,145L497,145z M503,152.3L503,152.3L503,152.3L503,152.3z M482.5,148.3L482.5,148.3
			L482.5,148.3L482.5,148.3z M539.7,130.5l-1.6,2.1l1.4-2.4L539.7,130.5z M473.1,138.3l1.3,1.9l-2-1.9H473.1z"/>
		<polygon class="st3" points="167.8,145.3 157.6,162.6 164.4,169.3 172.2,169.3 178.3,161.3 		"/>
		<polygon class="st3" points="230.6,160.3 221.6,175.5 227.6,181.3 234.4,181.3 239.7,174.3 		"/>
		<polygon class="st3" points="302.6,175.3 293.6,190.5 299.6,196.3 306.4,196.3 311.7,189.3 		"/>
		<polygon class="st3" points="417.4,155.3 407.6,171.9 414.1,178.3 421.6,178.3 427.5,170.6 		"/>
		<polygon class="st3" points="349.4,131.3 339.6,147.9 346.1,154.3 353.6,154.3 359.5,146.6 		"/>
		<polygon class="st3" points="560.4,125.3 550.6,141.9 557.1,148.3 564.6,148.3 570.5,140.6 		"/>
	</g>
	<polygon class="st4" points="176.4,250.6 188.6,269 181.5,278.3 172.5,278.3 164.6,270.6 	"/>
	<polygon class="st0" points="288.5,328.8 296.6,341.1 291.9,347.3 285.8,347.3 280.6,342.1 	"/>
	<polygon class="st4" points="316.4,267.6 328.6,286 321.5,295.3 312.5,295.3 304.6,287.6 	"/>
	<polygon class="st4" points="378.4,298.6 390.6,317 383.5,326.3 374.5,326.3 366.6,318.6 	"/>
	<path class="st4" d="M657.5,206.3l12.5-16.3l-21.4-32.7l-8.1,13.7l-10.3-15.7l-8.5,14.4l-12-18.4l-10.9,18.4l-8.1-12.4l-7.2,12
		l-9.8-15L562,173.8l-8.8-13.5l-9.1,15.4l-7.4-11.4l-9.3,15.6l-7.1-10.9l0.3-0.4l-10-15.3l-9.9,16.6l1.2,1.2l-1.2,2l-6.4-9.8
		l-5.1,8.6l-10.9-16.6l-10.3,17.3l-6.7-10.3l-10.6,17.8l-6.4-9.8l-9.9,16.7l-3.1-4.7l-2.4,4.1l-8.6-13.1l-6.1,10.2l-9.9-15.2
		l-9.1,15.4l-2.9-4.4l-6.8,11.5l-8.2-12.5l-8.7,14.6l-6.9-10.6l-5.8,9.7l-9.6-14.7l-8.8,14.9l-3.2-4.9l-5.1,8.6l-8.9-13.6l-4,6.7
		l-5-7.7l-10.8,18.3l-6.7-10.3l-9.5,16l-5.9-9l-4.9,8.3l-8.1-12.3l-12,20.2l-8-12.2l-11.4,19.1l-6.6-10.1L211,236.4l-11.9-18.1
		l-17.6,29.6l11.7,11.4h13.4l1.9-2.5l9.8,9.5h13.4l2.8-3.7l1.6,1.6l-10.5,17.7l11.7,11.4h13.4l9.9-13h7l7.1-9.3l-2.5-3.8h14.4
		l12.2-16h3.4l6.2,6h13.4l0.7-0.9l13.3,12.9h15.9l12.5-16.3l-3.5-5.3l5.8,5.6h12.6l-3.3,5.6l11.7,11.4h10.7l-0.4,0.6l11.7,11.4h13.4
		l5.8-7.7l5.8,5.7h13.4l10.4-13.7l-1.5-2.3h7.1l2.4-3.2l10.5,10.2h15.8l7.2,7h15.9l12.5-16.3l-3.1-4.7h12.6l3.4-4.4l10.7,10.4h15.9
		l8.2-10.7l5.9,5.7h15.9l5.9-7.8l2.8,2.8h13.4l10.4-13.7l-4.1-6.3h9.6l12.5-16.3l-8-12.3l1.6,1.6H657.5z M239.4,244.1l1.6-2.8h0.5
		L239.4,244.1z M265.5,202.9l0.9,1.4l-1.1-1.1L265.5,202.9z M262,253.3l0.4-0.7l0.5,0.7H262z M340.8,218.3l0.1-0.2l0.2,0.2H340.8z
		 M393.5,229.8l-0.2-0.3l-0.2-0.2l0,0l0.1,0.2L393.5,229.8L393.5,229.8z M406.2,256.4L406.2,256.4L406.2,256.4L406.2,256.4z
		 M461,175.3h-0.2l0.8-1.3l0.2,0.3L461,175.3z M476.7,192.7l0.5-0.8l0.1,0.1L476.7,192.7z M478,196.3l0.1-0.2l0.1,0.2H478z
		 M480,196.3L480,196.3L480,196.3L480,196.3z M484.3,224.8l-0.3-0.5l0.5-0.8l0.4,0.6L484.3,224.8z M503.1,202.3L503.1,202.3l0.2,0.2
		L503.1,202.3z M506.4,205.6l0.1-0.1l0.4,0.6L506.4,205.6z M511.6,236.9l-1.1-1.6h2.1L511.6,236.9z M545.5,236.3l-0.5,0.8l-0.8-0.8
		H545.5l0.7-1.1l0.7,1.1H545.5z M559.1,201.3l0.3-0.5l0.3,0.5H559.1z"/>
	<polygon class="st5" points="340.6,235.3 346.6,274.3 367.6,271.3 371.6,243.3 	"/>
	<polygon class="st6" points="340.6,205.3 321.6,245.1 333.3,274.3 346.6,274.3 357,239.2 	"/>
	<polygon class="st6" points="373.6,208.6 355.6,240.2 367.3,269.4 380.6,269.4 391,234.3 	"/>
	<polygon class="st6" points="286.1,194.3 268.6,223.9 280.3,235.3 293.6,235.3 304,221.6 	"/>
	<polygon class="st6" points="519.1,210.3 501.6,239.9 513.3,251.3 526.6,251.3 537,237.6 	"/>
	<polygon class="st6" points="466.1,263.3 448.6,292.9 460.3,304.3 473.6,304.3 484,290.6 	"/>
	<polygon class="st6" points="614.1,184.3 596.6,213.9 608.3,225.3 621.6,225.3 632,211.6 	"/>
	<polygon class="st6" points="488.1,164.3 470.6,193.9 482.3,205.3 495.6,205.3 506,191.6 	"/>
	<polygon class="st4" points="371.4,258.6 383.6,277 376.5,286.3 367.5,286.3 359.6,278.6 	"/>
	<polygon class="st7" points="519.4,334.7 537.6,362.4 527,376.3 513.4,376.3 501.6,364.7 	"/>
	<polygon class="st4" points="596.4,261.7 614.6,289.4 604,303.3 590.4,303.3 578.6,291.7 	"/>
</g>
</svg>
