<?xml version="1.0" encoding="utf-8"?>
<!-- Generator: Adobe Illustrator 21.1.0, SVG Export Plug-In . SVG Version: 6.00 Build 0)  -->
<svg version="1.1" id="Layer_1" xmlns="http://www.w3.org/2000/svg" xmlns:xlink="http://www.w3.org/1999/xlink" x="0px" y="0px"
	 viewBox="0 0 338 122" style="enable-background:new 0 0 338 122;" xml:space="preserve">
<style type="text/css">
	.st0{opacity:0.69;fill:none;stroke:#9B2323;stroke-width:2;stroke-miterlimit:10;}
	.st1{opacity:0.69;fill:none;stroke:#9B2323;stroke-miterlimit:10;}
	.st2{opacity:0.69;fill:none;stroke:#9B2323;stroke-width:0.5;stroke-miterlimit:10;}
</style>
<g>
	<polygon class="st0" points="297,80.7 297,48.7 169.2,32.8 41.4,48.7 41.4,80.7 169.2,96.7 	"/>
	<ellipse class="st1" cx="169.2" cy="64.7" rx="149.7" ry="32.4"/>
	<ellipse class="st1" cx="169.2" cy="64.7" rx="110.2" ry="23.8"/>
	<polygon class="st1" points="83,64.3 123.2,48.8 42.7,48.8 	"/>
	<polygon class="st2" points="169,24.9 8.5,85.4 329.5,85.4 	"/>
	<polygon class="st1" points="255.4,64.3 295.7,48.8 215.2,48.8 	"/>
	<polygon class="st1" points="169,96 209.3,80.6 128.7,80.6 	"/>
	<polygon class="st2" points="207.4,95.6 311.7,73 273.5,42.1 131,33.8 26.6,56.4 64.8,87.3 	"/>
	<polygon class="st2" points="311.7,56.4 207.4,33.8 64.8,42.1 26.6,73 131,95.6 273.5,87.3 	"/>
	<polygon class="st2" points="243,37 95.4,37 21.6,64.7 95.4,92.4 243,92.4 316.8,64.7 	"/>
</g>
</svg>
