<?xml version="1.0" encoding="utf-8"?>
<!-- Generator: Adobe Illustrator 21.1.0, SVG Export Plug-In . SVG Version: 6.00 Build 0)  -->
<svg version="1.1" id="Layer_1" xmlns="http://www.w3.org/2000/svg" xmlns:xlink="http://www.w3.org/1999/xlink" x="0px" y="0px"
	 viewBox="0 0 174 226" style="enable-background:new 0 0 174 226;" xml:space="preserve">
<style type="text/css">
	.st0{opacity:0.2;fill:#CC7171;}
	.st1{opacity:0.6;}
	.st2{fill:#CC7171;}
	.st3{fill:#9B2323;}
	.st4{fill:#470B0B;}
	.st5{fill:#771C1C;}
	.st6{fill:#CC9797;}
	.st7{fill:#EAE1E1;}
	.st8{opacity:0.3;}
</style>
<g>
	<polygon class="st0" points="55.5,204 19.9,180.6 15.5,143 46.5,100 78.5,79 65.5,50 110.5,15 90.5,54 141.5,88 158.5,149 
		138.5,196 109.5,204 84.5,209 	"/>
	<g class="st1">
		<ellipse class="st2" cx="86" cy="203.5" rx="61" ry="7.5"/>
		<circle class="st2" cx="86" cy="159.5" r="47.5"/>
	</g>
	<circle class="st3" cx="86" cy="169.5" r="37.5"/>
	<polygon points="86.5,133 79.5,167 86.5,206 92.5,167 	"/>
	<polygon class="st4" points="71.5,138 101.5,138 121.5,167 96.5,148 	"/>
	<polygon class="st5" points="57.5,151 49.5,166 52.5,185 56.5,191 66.5,200 77.5,205 89.5,205 101.5,202 110.5,196 95.5,194 
		79.5,191 66.5,179 	"/>
	<polygon class="st6" points="52.5,164 55.5,187 77.5,203 105.5,199 79.5,197 59.5,185 	"/>
	<polygon class="st7" points="95.5,140 102.5,141.1 107.5,151 99.5,145 	"/>
	<polygon class="st8" points="86.5,133 79.5,167 86.5,206 92.5,167 	"/>
</g>
</svg>
