<?xml version="1.0" encoding="utf-8"?>
<!-- Generator: Adobe Illustrator 21.1.0, SVG Export Plug-In . SVG Version: 6.00 Build 0)  -->
<svg version="1.1" id="Layer_1" xmlns="http://www.w3.org/2000/svg" xmlns:xlink="http://www.w3.org/1999/xlink" x="0px" y="0px"
	 viewBox="0 0 216 160" style="enable-background:new 0 0 216 160;" xml:space="preserve">
<style type="text/css">
	.st0{opacity:0.73;fill:#67A59C;}
</style>
<g>
	<polygon points="70.8,127.3 59.6,112 59.9,103.1 52.8,97.3 52.7,97.3 51.7,95 56,90.5 60,87.5 62,83.5 58,86.5 61,82.5 59,80.5 
		55,85.5 50.3,86.9 53,81.5 44,86.5 45,81.5 51,77.5 46,75.5 38,76.5 35.4,86.6 35.8,95.1 29.9,107 19.8,111.7 26,114.7 18,121.4 
		29.6,118.6 25.7,145.2 42.1,127.9 43.5,142 45.3,136.7 51.1,152.5 53.3,127.3 67.9,145.4 57.7,120.1 	"/>
	<polygon class="st0" points="42.4,77.5 46,75.5 38,76.5 37,82.5 	"/>
	<polygon class="st0" points="40.6,91.3 56,86.5 59,82.5 61,82.5 59,80.5 55,85.5 50.3,86.9 	"/>
	<polygon class="st0" points="39.5,98.8 36.1,100.8 35.6,105.8 	"/>
	<polygon class="st0" points="38.1,115.5 31,128.5 32,120.1 	"/>
	<polygon class="st0" points="45.8,130.1 47.5,124.6 43,114.4 	"/>
	<polygon class="st0" points="48.4,111 54,126.1 61.2,134.7 	"/>
	<polygon class="st0" points="32.2,110.3 23.5,117.4 28.4,115.9 	"/>
	<polyline points="96,100.5 109,89.5 109,77.5 106,62.5 102,57.5 104,46.5 95,55.5 93,49.5 94,46.2 95,40.5 93,35.5 93,39.5 
		92,42.5 89,44.5 88,38.5 92,34.5 86,36.5 84,44.5 89,52.5 92,80.5 69,92.5 59,103.5 55,110.5 61,119.5 83,128.5 106,125.5 
		118,117.5 143,103.5 147,77.5 140,52.5 126,50.5 115,77.5 114,85.5 99,88.5 	"/>
	<polygon points="92,50.5 96,48.5 97,43.5 95,46.5 92,46.5 	"/>
	<polygon points="54,103.7 66,81 65,90.6 71,77.4 67,35.5 81,75 82,49.8 85,75 86,63 88,71.4 92,57 98,85.8 84,120.5 	"/>
	<polygon points="131,69.5 145,46.5 169.3,44.5 173.7,28.5 166.7,18.5 165.9,7.5 170.2,16.5 178,25.5 183.3,22.5 185.9,14.5 
		185,26.5 178,31.5 171.9,56.5 170.2,51.5 151.1,60.5 138.9,91.5 	"/>
	<polygon points="174.6,31.5 165.9,24.5 163.2,15.5 168.5,22.5 174.6,24.5 	"/>
	<polygon points="132.8,86.5 156.3,67.5 173.7,82.5 188.5,76.5 187.6,69.5 191.1,57.5 191.1,69.5 192.8,73.5 192.8,83.5 198,85.5 
		191.1,85.5 190.2,80.5 164.1,96.5 168.5,89.5 158.9,85.5 137.1,103.5 	"/>
	<polygon points="187.6,78.5 182.4,70.5 184.1,59.5 185,69.5 191.1,73.5 	"/>
	<polygon class="st0" points="67,35.5 68,45.5 78,69.5 81,74.5 	"/>
	<polygon class="st0" points="82,50 81.3,69.8 82,56.5 85,77.5 85,75.5 	"/>
	<polygon class="st0" points="84,105.5 90,92.5 91,75.5 93,93.5 	"/>
	<polygon class="st0" points="69,115.5 70,98.5 82,80.5 74,97.5 79,95.5 73,101.5 	"/>
	<polygon class="st0" points="101,110.5 104,79.5 94,63.5 102,80.5 	"/>
	<polygon class="st0" points="104,46.5 93,57.5 99,53.5 	"/>
	<polyline class="st0" points="126,50.5 115,77.5 114,85.5 112,100.5 117,77.5 126,50.5 	"/>
	<polygon class="st0" points="131,92.5 136,76.5 133,55.5 137,77.5 	"/>
	<polygon class="st0" points="127,85.5 114,115.5 122,103.5 	"/>
	<polygon class="st0" points="173.2,30.4 169.4,44.5 173,37.5 	"/>
	<polygon class="st0" points="168,18.5 165.9,7.5 166.7,18.5 173.7,28.5 	"/>
	<polygon class="st0" points="171.8,29.2 165.9,24.5 163.2,15.5 167,24.5 	"/>
</g>
</svg>
