<?xml version="1.0" encoding="utf-8"?>
<!-- Generator: Adobe Illustrator 21.1.0, SVG Export Plug-In . SVG Version: 6.00 Build 0)  -->
<svg version="1.1" id="Layer_1" xmlns="http://www.w3.org/2000/svg" xmlns:xlink="http://www.w3.org/1999/xlink" x="0px" y="0px"
	 viewBox="0 0 854 757" style="enable-background:new 0 0 854 757;" xml:space="preserve">
<style type="text/css">
	.st0{fill:#90A1B5;}
	.st1{fill:#E3EFFD;}
	.st2{fill:#67A59C;}
	.st3{opacity:0.73;fill:#67A59C;}
</style>
<g>
	<polygon class="st0" points="75.5,496 714.5,496 622.5,566 670.5,514 146.5,530 	"/>
	<polygon class="st1" points="75.5,54 641.8,496 75.5,496 	"/>
	<polygon points="609.5,703 622.5,566 670.5,514 146.5,530 	"/>
	<path d="M338.5,379.3l3,7.7l-4,3l-5,0.9l-3-2.9l1-4l-4,4l1,3.8l-28,12.2l-11-13.1l-3.3-2.9l3.3-4v-8.5l7.2,1.4l1.7,2.5l4.1-10.1
		l-9.3-8.3l-8.4-1.6l-10.2-8.5l-2.2-11l-4.4,5.4l-4.6-9.4v12l-25-10l13,20l-14-2l4.7,3.1l-16.7,1.9l24,8l-21,10l27-4l-10,11l19-8
		l-2,8l-8,7l-23,45l17-15l-18,28l27-28l-5,13l9.4-12.5l-1.4,8.5l-23,24l30,14l31-14l-13-24v-6l2.9-9.8l7.1,7.8l18-9l4,20l6-36
		c0,0,7-3.8,7-4s9,1,9,1l5-4l1-6L338.5,379.3z M280.3,375l1.2,5l1.1,5.7l-3.1-2.8l-1.7-7.5L280.3,375z"/>
	<polygon points="293.5,455 296.5,460 276.5,479 277.5,491 294.5,496 276.5,496 271.5,494 258.5,496 272.5,490 265.5,475 269.5,477 
		277.5,461 	"/>
	<polygon points="272.5,460.3 254.5,473.4 260.8,491.6 272.8,496 259.7,496 256.4,493.8 244.4,496 255.3,489.5 239.5,467.8 
		244.6,470.1 259.1,448.2 	"/>
	<polygon class="st2" points="334.9,389 329.5,382.2 336.3,378.1 332.2,370 339,378.1 340.4,383.6 	"/>
	<polygon class="st3" points="299.5,370 297.4,379.4 301.5,369.3 296.5,365 	"/>
	<polygon class="st3" points="286.5,365 286.5,383 283.5,389 285.2,388 288.5,384 288.5,375.5 	"/>
	<polygon class="st3" points="321.6,394.3 299.5,404 318.5,398 319.5,402 319.5,409 319.4,417.5 322.5,399 	"/>
	<polygon class="st3" points="290.5,454 297.5,456 285,433 	"/>
	<polygon class="st3" points="268.5,403 268.5,415 257.5,428 265.5,415 	"/>
	<polygon class="st3" points="270.5,390.7 263.7,404.3 246.5,422.3 261.7,403.2 	"/>
	<polygon class="st3" points="287.5,390 286.5,400 274.5,415 282.5,401 275.5,403 270.5,407 274.5,402 283.5,399 	"/>
	<polygon class="st3" points="282.5,426 275.5,428 267.5,428 276.5,430 	"/>
	<polygon class="st3" points="280.5,436 278.5,446 254.5,453 274.5,442 	"/>
	<polygon class="st3" points="279.4,362.3 278.3,358.4 273.6,356.7 	"/>
	<polygon class="st3" points="263.5,357 252.5,347 260.5,350 	"/>
	<polygon class="st3" points="247.5,361 252.5,364 263.5,362 	"/>
	<polygon class="st3" points="265.5,368 249.5,370 239.5,375 	"/>
	<polygon class="st3" points="269.9,352.4 265,342.3 265.4,347.4 	"/>
	<polygon points="690.9,372.9 691,372.8 688.5,372.1 686.8,377 685.1,382.5 684.8,386.8 682.3,384.5 679.5,380.3 680.3,371.8 
		673,372.4 671.1,374.7 668,364.3 678.1,357 686.6,356.3 697.6,348.9 700.9,338.2 704.8,344.1 710.3,335.2 709,347.1 734.9,339.8 
		719.9,358.3 734.1,357.8 729,360.3 745.5,364 720.8,369.5 740.7,381.6 714.2,374.8 723,386.8 706.5,377.7 697.7,379.1 	"/>
	<polygon points="727,452.6 731.6,456.2 719.8,481.1 728.5,487 736.5,488 742.5,496 733.5,491 728.5,494 721.5,499 727.5,490 
		708.1,481.4 712.6,481.8 714.3,464 	"/>
	<polygon points="695.5,460.3 677.5,473.4 683.8,491.6 695.8,496 682.7,496 679.4,493.8 667.4,496 678.3,489.5 662.5,467.8 
		667.6,470.1 682.1,448.2 	"/>
	<polygon class="st3" points="670,365.2 671.1,374.7 668,364.3 673.5,360.5 	"/>
	<polygon class="st3" points="683.4,361.6 681.6,379.5 683.9,385.7 682.3,384.5 679.5,380.3 680.3,371.8 	"/>
	<polygon class="st3" points="690.7,359.6 692.3,355.9 697.1,354.7 	"/>
	<polygon class="st3" points="707.1,356 719.1,347.2 710.8,349.3 	"/>
	<polygon class="st3" points="722.6,361.6 717.3,364.1 706.6,361 	"/>
	<polygon class="st3" points="704,366.7 719.7,370.4 729.1,376.4 	"/>
	<polygon class="st3" points="701.2,350.7 707.1,341.2 706.2,346.3 	"/>
	<path d="M697.5,378l-2,8l-8,7l-23,45l17-15l-18,28l27-28l-5,13l9.4-12.5l-1.4,8.5l-23,24l30,14l31-14l-13-24v-6l2.9-9.8l7.1,7.8
		l18-9l4,20l6-36c0,0,7-3.8,7-4s9,1,9,1l5-4l1-6l-6-6.7l3,7.7l-4,3l-5,0.9l-3-2.9l1-4l-4,4l1,3.8l-28,12.2l-11-13.1l-3.3-2.9
		l-2.6-2.3l-3.1-2.8l-1.7-7.5L697.5,378z"/>
	<polygon class="st2" points="768.9,389 763.5,382.2 770.3,378.1 766.2,370 773,378.1 774.4,383.6 	"/>
	<polygon class="st3" points="755.6,394.3 733.5,404 752.5,398 753.5,402 753.5,409 753.4,417.5 756.5,399 	"/>
	<polygon class="st3" points="724.5,454 731.5,456 719,433 	"/>
	<polygon class="st3" points="702.5,403 702.5,415 691.5,428 699.5,415 	"/>
	<polygon class="st3" points="704.5,390.7 697.7,404.3 680.5,422.3 695.7,403.2 	"/>
	<polygon class="st3" points="721.5,390 720.5,400 708.5,415 716.5,401 709.5,403 704.5,407 708.5,402 717.5,399 	"/>
	<polygon class="st3" points="716.5,426 709.5,428 701.5,428 710.5,430 	"/>
	<polygon class="st3" points="714.5,436 712.5,446 688.5,453 708.5,442 	"/>
	<polygon class="st3" points="717.5,481 719.5,481 728.5,487 736.5,488 727.5,488 	"/>
	<polygon class="st3" points="677.5,473 674.5,470 682.5,492 691.4,494.4 683.5,491 	"/>
</g>
</svg>
