<?xml version="1.0" encoding="utf-8"?>
<!-- Generator: Adobe Illustrator 21.1.0, SVG Export Plug-In . SVG Version: 6.00 Build 0)  -->
<svg version="1.1" id="Layer_1" xmlns="http://www.w3.org/2000/svg" xmlns:xlink="http://www.w3.org/1999/xlink" x="0px" y="0px"
	 viewBox="0 0 438 322" style="enable-background:new 0 0 438 322;" xml:space="preserve">
<style type="text/css">
	.st0{opacity:0.3;fill:#67A59C;}
	.st1{opacity:0.73;fill:#67A59C;}
</style>
<g>
	<polygon class="st0" points="170.5,271 96.5,274 33.5,229 12.5,148 112.5,125 156.5,93 181.5,62 212.5,47 189.5,82 212.5,91 
		292.5,87 319.5,106 385.5,75 408.5,51 393.5,100 353.5,141 380.5,186 425.5,167 391.5,209 331.5,275 248.5,262 	"/>
	<polygon points="33.5,153 124.5,171 223.5,141 372.5,206 189.5,243 140.5,247 90.5,228 	"/>
	<polygon class="st1" points="112.5,246.6 192.7,141.1 265.5,124.7 261.1,185.7 	"/>
	<polygon class="st1" points="163,246.6 305.6,185.7 372.5,206.5 319,254 	"/>
	<polygon class="st1" points="33.8,152.6 49.7,194.9 118.4,264.8 81.5,174.6 	"/>
	<polygon points="182.5,241.6 298.6,192 353.1,208.9 309.5,247.7 	"/>
	<polygon points="127.9,234.3 192,150.1 250.1,137 246.6,185.7 	"/>
	<polygon points="40.6,161.7 54,197.1 111.6,255.7 80.6,180.1 	"/>
</g>
</svg>
