<?xml version="1.0" encoding="utf-8"?>
<!-- Generator: Adobe Illustrator 21.1.0, SVG Export Plug-In . SVG Version: 6.00 Build 0)  -->
<svg version="1.1" id="Layer_1" xmlns="http://www.w3.org/2000/svg" xmlns:xlink="http://www.w3.org/1999/xlink" x="0px" y="0px"
	 viewBox="0 0 748 568" style="enable-background:new 0 0 748 568;" xml:space="preserve">
<style type="text/css">
	.st0{opacity:0.5;fill:url(#SVGID_1_);}
	.st1{fill:#9B2323;}
	.st2{opacity:0.6;fill:#9B2323;}
	.st3{opacity:0.73;fill:#67A59C;}
	.st4{fill:#CC9797;}
</style>
<g>
	<linearGradient id="SVGID_1_" gradientUnits="userSpaceOnUse" x1="404.213" y1="419.2475" x2="331.8887" y2="249.2928">
		<stop  offset="0" style="stop-color:#9B2323"/>
		<stop  offset="1" style="stop-color:#080C0B"/>
	</linearGradient>
	<polygon class="st0" points="105.5,388.8 223.5,266.8 286.5,92.8 298.5,194.8 446.5,23.8 367.5,196.8 576.5,107.8 434.5,238.8 
		699.5,242.8 567.5,319.8 664.5,335.8 510.5,384.8 699.5,393.8 481.5,428.8 164.5,442.8 92.5,462.8 48.5,453.8 65.5,399.8 	"/>
	<polygon class="st1" points="347.6,476.4 350.6,478.6 343.6,490.8 340.5,483.1 	"/>
	<polygon class="st1" points="254.1,451.2 237.3,448.1 193.8,454.3 235.7,457 	"/>
	<polygon class="st1" points="461,438.3 473,435.3 493,438.3 467,440.3 	"/>
	<polygon class="st1" points="382.5,468.5 387.2,471.7 385.8,481.3 378.4,474.2 	"/>
	<polygon class="st1" points="301.1,483 291.7,484.6 282.2,491.8 299.3,489.8 	"/>
	<polygon class="st1" points="458.7,455 444.5,450.4 433.6,440.1 463,448.6 	"/>
	<polygon class="st1" points="323,477.3 320,480.3 322,486.3 326,480.3 	"/>
	<polygon class="st1" points="276,452.8 261.4,454.8 253.8,461.4 290.1,457.3 	"/>
	<polygon class="st1" points="446,460.3 460,466.3 460,477.3 446,466.3 	"/>
	<polygon class="st1" points="415,447.3 419,445.3 425,450.3 417,449.3 	"/>
	<polygon class="st2" points="324,429.3 233,428.3 174,428.3 147,408.3 149,435.3 114,447.3 92.5,462.8 164.5,442.8 481.5,428.8 
		410,420.3 	"/>
	<polygon class="st3" points="298.2,192.1 286.5,92.8 284,133.3 	"/>
	<polygon class="st3" points="407.5,279.3 507.6,279.8 390.3,337.8 463,287.3 	"/>
	<polygon class="st3" points="424,56.3 342,243.3 367.5,196.8 446.5,23.8 	"/>
	<polygon class="st3" points="552,123.3 434.5,238.8 576.5,107.8 514.8,134 	"/>
	<polygon class="st3" points="655,253.3 567.5,319.8 699.5,242.8 621.2,241.6 	"/>
	<polygon class="st3" points="572.1,320.5 597,341.3 510.5,384.8 664.5,335.8 	"/>
	<polygon class="st3" points="627,397.3 431,407.3 481.5,428.8 699.5,393.8 534.6,385.9 	"/>
	<polygon class="st2" points="661,397.3 456,412.3 481.5,428.8 699.5,393.8 	"/>
	<path class="st1" d="M396,544.3l37-19l-5-9v-22l-5-23l-19,4l-9-15.1l-43,1.3l15,7.4l-38,0.7l-59,12.7l-39-11.4l-22,4l-15,13.4
		l-4-16.1l31-10.7l53,5.4l34-15.4l-60-12.1l51-9.4l4.2-0.1l3.8-5.6l13-12l-1,13v4.2l6.9-0.2l8.1-4.1l3-12l4,12l-0.9,3.7l8.4-0.2
		l2.5-3.6l2.5,3.4l9.8-0.2l8.7-8.2l-4-21l12,21l-2.5,7.9l38.5-0.9l13,6l-34,4.7l16,5.4l-17,4.9l11,6.5l3,8.7l20-0.2l12,53l4,7l37,6
		C428,532.3,405,541.3,396,544.3z"/>
	<polygon class="st2" points="161,380.3 221,338.3 263,274.3 	"/>
	<polygon class="st3" points="417.8,395 508.7,359.4 449.2,346.5 488,360.3 	"/>
	<polygon class="st2" points="184,408.3 357,388.3 295,382.3 	"/>
	<polygon class="st2" points="417.8,395 508.7,359.4 483,353.9 496.6,359.9 	"/>
	<polygon class="st2" points="608,344.3 510.5,384.8 647.5,341.1 	"/>
	<polygon class="st2" points="494.7,286.2 390.3,337.8 470,293.3 	"/>
	<polygon class="st4" points="271,480.3 290,476.3 281,475.3 	"/>
	<polygon class="st4" points="343,467.3 361,467.3 352,465.3 	"/>
	<polygon class="st4" points="430,477.3 438,516.3 433,502.3 	"/>
	<polygon class="st4" points="415,464.3 427,464.3 429,471.3 426,466.3 	"/>
	<polygon class="st4" points="192,473.3 203,475.3 196,478.3 	"/>
	<polygon class="st4" points="442,523.3 443,525.3 461,527.3 442,527.3 	"/>
	<polygon class="st4" points="437,524.3 429,528.3 437,526.3 439,525.3 	"/>
	<polygon class="st4" points="405,443.3 389,449.3 372,449.3 	"/>
	<polygon class="st4" points="423,433.3 397,436.3 414,432.3 	"/>
	<polygon class="st4" points="292,446.3 315,451.3 338,447.7 	"/>
	<polygon class="st4" points="375,428.3 378,422.3 376,416.3 376,422.3 	"/>
	<polygon class="st4" points="338,422.3 340,426.3 338,429.3 	"/>
	<polygon class="st4" points="318,419.3 317,425.3 317,430.3 315,425.3 	"/>
	<polygon class="st4" points="310,463.3 328,465.3 353,457.3 328,462.3 	"/>
	<polygon class="st4" points="221,454.3 235,455.3 241,453.3 	"/>
	<polygon class="st4" points="266,458.3 282,457.3 272,456.3 	"/>
	<polygon class="st4" points="291,489.3 297,488.3 293,487.3 	"/>
	<polygon class="st4" points="323,483.3 325,480.3 323,480.3 	"/>
	<polygon class="st4" points="344,486.3 347,483.3 343,484.3 	"/>
	<polygon class="st4" points="385,473.3 385,477.3 383,475.3 	"/>
	<polygon class="st4" points="418,448.3 422,449.3 419,447.3 	"/>
	<polygon class="st4" points="447,450.3 458,453.3 453,449.3 	"/>
	<polygon class="st4" points="451,469.3 458,473.3 459,470.3 	"/>
	<polygon class="st4" points="469,439.3 482,438.3 473,438.3 473,438.3 	"/>
</g>
</svg>
