<?xml version="1.0" encoding="utf-8"?>
<!-- Generator: Adobe Illustrator 21.1.0, SVG Export Plug-In . SVG Version: 6.00 Build 0)  -->
<svg version="1.1" id="Layer_1" xmlns="http://www.w3.org/2000/svg" xmlns:xlink="http://www.w3.org/1999/xlink" x="0px" y="0px"
	 viewBox="0 0 756 584" style="enable-background:new 0 0 756 584;" xml:space="preserve">
<style type="text/css">
	.st0{opacity:0.5;fill:url(#SVGID_1_);}
	.st1{fill:#9B2323;}
	.st2{opacity:0.6;fill:#9B2323;}
	.st3{opacity:0.73;fill:#67A59C;}
	.st4{fill:#CC9797;}
</style>
<g>
	<linearGradient id="SVGID_1_" gradientUnits="userSpaceOnUse" x1="408.213" y1="427.2475" x2="335.8887" y2="257.2928">
		<stop  offset="0" style="stop-color:#9B2323"/>
		<stop  offset="1" style="stop-color:#080C0B"/>
	</linearGradient>
	<polygon class="st0" points="109.5,396.8 227.5,274.8 290.5,100.8 302.5,202.8 450.5,31.8 371.5,204.8 580.5,115.8 438.5,246.8 
		703.5,250.8 571.5,327.8 668.5,343.8 514.5,392.8 703.5,401.8 485.5,436.8 168.5,450.8 96.5,470.8 52.5,461.8 69.5,407.8 	"/>
	<polygon class="st1" points="351.6,484.4 354.6,486.6 347.6,498.8 344.5,491.1 	"/>
	<polygon class="st1" points="258.1,459.2 241.3,456.1 197.8,462.3 239.7,465 	"/>
	<polygon class="st1" points="465,446.3 477,443.3 497,446.3 471,448.3 	"/>
	<polygon class="st1" points="386.5,476.5 391.2,479.7 389.8,489.3 382.4,482.2 	"/>
	<polygon class="st1" points="305.1,491 295.7,492.6 286.2,499.8 303.3,497.8 	"/>
	<polygon class="st1" points="462.7,463 448.5,458.4 437.6,448.1 467,456.6 	"/>
	<polygon class="st1" points="327,485.3 324,488.3 326,494.3 330,488.3 	"/>
	<polygon class="st1" points="280,460.8 265.4,462.8 257.8,469.4 294.1,465.3 	"/>
	<polygon class="st1" points="450,468.3 464,474.3 464,485.3 450,474.3 	"/>
	<polygon class="st1" points="419,455.3 423,453.3 429,458.3 421,457.3 	"/>
	<polygon class="st2" points="328,437.3 237,436.3 178,436.3 151,416.3 153,443.3 118,455.3 96.5,470.8 168.5,450.8 485.5,436.8 
		414,428.3 	"/>
	<polygon class="st3" points="302.2,200.1 290.5,100.8 288,141.3 	"/>
	<polygon class="st3" points="411.5,287.3 511.6,287.8 394.3,345.8 467,295.3 	"/>
	<polygon class="st3" points="428,64.3 346,251.3 371.5,204.8 450.5,31.8 	"/>
	<polygon class="st3" points="556,131.3 438.5,246.8 580.5,115.8 518.8,142 	"/>
	<polygon class="st3" points="659,261.3 571.5,327.8 703.5,250.8 625.2,249.6 	"/>
	<polygon class="st3" points="576.1,328.5 601,349.3 514.5,392.8 668.5,343.8 	"/>
	<polygon class="st3" points="631,405.3 435,415.3 485.5,436.8 703.5,401.8 538.6,393.9 	"/>
	<polygon class="st2" points="665,405.3 460,420.3 485.5,436.8 703.5,401.8 	"/>
	<path class="st1" d="M400,552.3l37-19l-5-9v-22l-5-23l-19,4l-9-15.1l-43,1.3l15,7.4l-38,0.7l-59,12.7l-39-11.4l-22,4l-15,13.4
		l-4-16.1l31-10.7l53,5.4l34-15.4l-60-12.1l23-8.1l13-3l-1-17l-14-28l30,22l4,8l3-8l12-7v-21l20,30l1,7l6-9l-4-18l13.8,30.5l-0.9,7
		l-0.5,3.9l9.8-0.2l8.7-8.2l-4-21l12,21l-2.5,7.9l38.5-0.9l13,6l-34,4.7l16,5.4l-17,4.9l11,6.5l3,8.7l20-0.2l12,53l4,7l37,6
		C432,540.3,409,549.3,400,552.3z"/>
	<polygon class="st2" points="165,388.3 225,346.3 267,282.3 	"/>
	<polygon class="st3" points="421.8,403 512.7,367.4 453.2,354.5 492,368.3 	"/>
	<polygon class="st2" points="188,416.3 361,396.3 299,390.3 	"/>
	<polygon class="st2" points="421.8,403 512.7,367.4 487,361.9 500.6,367.9 	"/>
	<polygon class="st2" points="612,352.3 514.5,392.8 651.5,349.1 	"/>
	<polygon class="st2" points="498.7,294.2 394.3,345.8 474,301.3 	"/>
	<polygon class="st4" points="275,488.3 294,484.3 285,483.3 	"/>
	<polygon class="st4" points="347,475.3 365,475.3 356,473.3 	"/>
	<polygon class="st4" points="434,485.3 442,524.3 437,510.3 	"/>
	<polygon class="st4" points="419,472.3 431,472.3 433,479.3 430,474.3 	"/>
	<polygon class="st4" points="196,481.3 207,483.3 200,486.3 	"/>
	<polygon class="st4" points="446,531.3 447,533.3 465,535.3 446,535.3 	"/>
	<polygon class="st4" points="441,532.3 433,536.3 441,534.3 443,533.3 	"/>
	<polygon class="st4" points="409,451.3 393,457.3 376,457.3 	"/>
	<polygon class="st4" points="427,441.3 401,444.3 418,440.3 	"/>
	<polygon class="st4" points="296,454.3 319,459.3 342,455.7 	"/>
	<polygon class="st4" points="379,436.3 382,430.3 380,424.3 380,430.3 	"/>
	<polygon class="st4" points="314,471.3 332,473.3 357,465.3 332,470.3 	"/>
	<polygon class="st4" points="225,462.3 239,463.3 245,461.3 	"/>
	<polygon class="st4" points="270,466.3 286,465.3 276,464.3 	"/>
	<polygon class="st4" points="295,497.3 301,496.3 297,495.3 	"/>
	<polygon class="st4" points="327,491.3 329,488.3 327,488.3 	"/>
	<polygon class="st4" points="348,494.3 351,491.3 347,492.3 	"/>
	<polygon class="st4" points="389,481.3 389,485.3 387,483.3 	"/>
	<polygon class="st4" points="422,456.3 426,457.3 423,455.3 	"/>
	<polygon class="st4" points="451,458.3 462,461.3 457,457.3 	"/>
	<polygon class="st4" points="455,477.3 462,481.3 463,478.3 	"/>
	<polygon class="st4" points="473,447.3 486,446.3 477,446.3 477,446.3 	"/>
	<polygon class="st4" points="329,399.3 337,413.3 337,428.3 332,408.3 	"/>
	<polygon class="st4" points="353,418.3 356,425.3 353,436.3 	"/>
	<polygon class="st4" points="305,434.3 307,427.3 300,415.3 304,425.3 	"/>
	<polygon class="st4" points="279,444.2 335.9,440.2 385,442.3 	"/>
</g>
</svg>
