<?xml version="1.0" encoding="utf-8"?>
<!-- Generator: Adobe Illustrator 21.1.0, SVG Export Plug-In . SVG Version: 6.00 Build 0)  -->
<svg version="1.1" id="Layer_1" xmlns="http://www.w3.org/2000/svg" xmlns:xlink="http://www.w3.org/1999/xlink" x="0px" y="0px"
	 viewBox="0 0 1202 995" style="enable-background:new 0 0 1202 995;" xml:space="preserve">
<style type="text/css">
	.st0{opacity:0.3;fill:#E3EFFD;}
	.st1{opacity:0.38;fill:#67A59C;}
</style>
<g>
	<polygon class="st0" points="220.5,77.5 167.5,210.5 365.5,99.5 183.5,188.5 	"/>
	<polygon class="st0" points="414.5,81.5 329.5,197.5 408.5,155.5 345.5,181.5 	"/>
	<polygon class="st0" points="75.5,72.5 78.5,135.5 100.5,87.5 80.5,124.5 	"/>
	<polygon class="st1" points="513,117 507,253 600,136 515,232 	"/>
	<polygon class="st1" points="671.3,110 631.1,236.2 748.9,83.8 641.9,211.9 	"/>
	<polygon class="st1" points="820.5,85.5 780.5,155.5 846.5,124.5 794.5,141.5 	"/>
	<polygon class="st1" points="987.5,136.5 828.5,259.5 1034.5,209.5 846.5,249.5 	"/>
	<polygon class="st1" points="1126.5,652.5 864.5,464.5 1080.5,731.5 915.5,512.5 	"/>
	<polygon class="st1" points="1070.5,404.5 943.5,374.5 1034.5,359.5 965.5,375.5 	"/>
	<polygon class="st1" points="472.5,666.5 500.5,583.5 501.5,782.5 495.5,616.5 	"/>
	<polygon class="st1" points="1041.5,841.5 905.5,691.5 1021.5,934.5 938.5,743.5 	"/>
	<polygon class="st1" points="881.5,853.5 755.5,676.5 853.5,922.5 784.5,734.5 	"/>
	<polygon points="513,117 519.5,60.5 644.5,85.5 600,136 515,232 	"/>
	<polygon points="671.3,110 748.9,83.8 641.9,211.9 	"/>
</g>
</svg>
