<?xml version="1.0" encoding="utf-8"?>
<!-- Generator: Adobe Illustrator 21.1.0, SVG Export Plug-In . SVG Version: 6.00 Build 0)  -->
<svg version="1.1" id="Layer_1" xmlns="http://www.w3.org/2000/svg" xmlns:xlink="http://www.w3.org/1999/xlink" x="0px" y="0px"
	 viewBox="0 0 663 364" style="enable-background:new 0 0 663 364;" xml:space="preserve">
<style type="text/css">
	.st0{fill:#7F6262;}
	.st1{opacity:0.45;fill:#7DD0CB;}
	.st2{fill:#261E1E;}
</style>
<g>
	<polygon class="st0" points="16,117 88.8,333.1 230.5,284.1 359,307.8 467.4,247.7 609.1,290.8 647,146 456.2,189.8 502.2,108.1 
		414.6,30.9 445.8,109.6 387.2,181.6 317.4,205.4 238,198.7 123.6,255.9 	"/>
	<polygon class="st1" points="211,227.9 265,213.9 326,219.9 356.6,192 317.4,205.4 238,198.7 212,211.9 	"/>
	<polygon class="st1" points="177.6,228.9 123.6,255.9 16,117 117,268.9 153,251.9 	"/>
	<polygon class="st1" points="402.3,196.9 428,184.9 460,109.9 414.6,30.9 445.8,109.6 387.2,181.6 356.6,192 	"/>
	<polygon class="st1" points="490.2,182 564,179.9 630.4,149.8 	"/>
	<polygon class="st2" points="230.5,284.1 88.8,333.1 48.5,213.7 16,117 107,294.9 189,260.9 226,268.9 	"/>
	<polygon class="st2" points="230.5,284.1 359,307.8 467.4,247.7 455,202.9 408,249.9 380.6,261.1 362,237.9 325.2,269.4 222,255.9 
			"/>
	<polygon class="st2" points="467.4,247.7 609.1,290.8 628.1,218.4 456,217.9 	"/>
</g>
</svg>
