<?xml version="1.0" encoding="utf-8"?>
<!-- Generator: Adobe Illustrator 21.1.0, SVG Export Plug-In . SVG Version: 6.00 Build 0)  -->
<svg version="1.1" id="Layer_1" xmlns="http://www.w3.org/2000/svg" xmlns:xlink="http://www.w3.org/1999/xlink" x="0px" y="0px"
	 viewBox="0 0 476 284" style="enable-background:new 0 0 476 284;" xml:space="preserve">
<style type="text/css">
	.st0{fill:#564343;}
	.st1{opacity:0.45;fill:#86DBD2;}
</style>
<g>
	<polygon class="st0" points="403.2,157 379.5,215.2 379.2,215.8 369,217.8 258.9,239.4 134.4,258.7 72.8,184.4 127,25.3 
		138.2,168.8 170.1,200.8 220.6,183.7 280.4,183.5 358.6,142.1 339.3,38.9 	"/>
	<polygon class="st1" points="134.4,258.7 91.9,187.7 104.9,171.7 133.9,171.7 166.9,205.7 	"/>
	<polygon class="st1" points="104.9,157.7 121.9,63.7 130.9,161.7 	"/>
	<polygon class="st1" points="290.9,183.7 360.9,145.7 378.9,151.7 329.9,194.7 	"/>
	<polygon class="st1" points="362.9,140.7 380.9,144.7 350.9,74.7 	"/>
</g>
</svg>
